# xmcd
#
# Track frame offsets: 
#        150
#        14475
#        26513
#        41531
#        53875
#        70014
#        91802
#        106163
#        117826
#        129925
#        142188
#        155763
#        181674
#        198925
#        216100
#        240810
#        264061
#        281339
#        297823
#        314466
#        325190
#
# Disc length: 4622 seconds
#
# Revision: 0
# Processed by: cddbd v1.5.2PL0 Copyright (c) Steve Scherf et al.
# Submitted via: ExactAudioCopy v0.99pb5
#
DISCID=1a120c15
DTITLE=David Bowie  - Conversation Piece (Disc03)
DYEAR=1900
DGENRE=
TTITLE0=Crystal Japan
TTITLE1=John I'm Only Dancing
TTITLE2=Changes
TTITLE3=The Supermen
TTITLE4=Ashes To Ashes
TTITLE5=Wild Eyed Boy From Freecloud
TTITLE6=The Prettiest Star
TTITLE7=London Bye TaTa
TTITLE8=Round And Round
TTITLE9=John I'm Only Dancing
TTITLE10=Rebel Rebel
TTITLE11=Fascination
TTITLE12=After Today
TTITLE13=It's Hard To Be A Saint In The City
TTITLE14=1984-Dodo
TTITLE15=Space Oddity
TTITLE16=Alabama Song
TTITLE17=Helden
TTITLE18=Lightning Frightening
TTITLE19=Holy Holy
TTITLE20=Quicksand
EXTD=
EXTT0=
EXTT1=
EXTT2=
EXTT3=
EXTT4=
EXTT5=
EXTT6=
EXTT7=
EXTT8=
EXTT9=
EXTT10=
EXTT11=
EXTT12=
EXTT13=
EXTT14=
EXTT15=
EXTT16=
EXTT17=
EXTT18=
EXTT19=
EXTT20=
PLAYORDER=
